<svg width="1080" height="1080" viewBox="0 0 1080 1080" fill="none" xmlns="http://www.w3.org/2000/svg">
<rect width="1080" height="1080" fill="#1E1E2E"/>
<g clip-path="url(#clip0_16_2)">
<path d="M383.086 442.788L350.848 495.259L498.675 586.081L554.733 692.799L490.258 797.742C481.392 812.172 468.665 821.368 452.077 825.33C435.488 829.293 419.979 826.841 405.549 817.976L353.077 785.739C338.648 776.873 329.452 764.146 325.489 747.558C321.527 730.969 323.978 715.459 332.843 701.03L397.318 596.087L318.611 547.731C304.181 538.865 294.985 526.138 291.023 509.55C287.06 492.961 289.512 477.451 298.377 463.022L371.508 343.99L442.617 479.363L383.086 442.788Z" fill="#A6E3A1"/>
<path d="M463.679 311.609L415.323 390.316L730.152 583.741L745.555 558.671L778.041 623.438L718.149 720.921C709.283 735.351 696.556 744.547 679.967 748.509C663.379 752.472 647.869 750.021 633.44 741.155L554.732 692.799L498.675 586.081L665.677 688.684L697.915 636.212L442.617 479.363L371.508 343.99L411.208 279.372C428.938 250.512 454.392 232.12 487.57 224.195C520.748 216.27 551.766 221.173 580.626 238.904L587.186 242.934L639.588 347.406L548.388 291.375C533.958 282.51 518.449 280.058 501.86 284.021C485.272 287.983 472.545 297.179 463.679 311.609Z" fill="#B4F2AF"/>
<path d="M648.096 364.37L680.582 429.137L673.565 440.559L621.094 408.321L648.096 364.37Z" fill="#B4F2AF"/>
<path d="M696.825 461.52L729.312 526.287L720.035 541.386L667.563 509.149L696.825 461.52Z" fill="#B4F2AF"/>
<path d="M639.588 347.406L587.187 242.934L895.455 432.328L778.041 623.437L745.555 558.671L810.746 452.562L784.51 436.443L729.312 526.287L696.826 461.52L732.039 404.206L705.803 388.087L680.583 429.137L648.097 364.37L653.331 355.85L639.588 347.406Z" fill="#CAF2C7"/>
</g>
<defs>
<clipPath id="clip0_16_2">
<rect width="739" height="739" fill="white" transform="translate(419.096 31.2466) rotate(31.5657)"/>
</clipPath>
</defs>
</svg>
